<svg xmlns="http://www.w3.org/2000/svg" fill="none" viewBox="0 0 100 49" height="49" width="100">
<path fill="black" d="M24.8042 34.2142C25.9396 33.5662 27.2424 33.2422 28.7094 33.2422C30.1764 33.2422 31.5089 33.5414 32.6443 34.1398C33.7798 34.7382 34.6743 35.5846 35.3281 36.6806C35.9818 37.7767 36.3181 39.0618 36.3384 40.5377C36.3384 40.9361 36.3087 41.3453 36.2477 41.7639H24.6071V41.9437C24.6869 43.2785 25.1091 44.3358 25.8739 45.1124C26.6387 45.8891 27.6537 46.2782 28.9189 46.2782C29.9246 46.2782 30.7691 46.0441 31.4526 45.576C32.136 45.1078 32.588 44.4443 32.8101 43.5885H36.0678C35.7863 45.1434 35.0278 46.4177 33.7907 47.4146C32.5536 48.4114 31.0115 48.909 29.1614 48.909C27.5536 48.909 26.1507 48.585 24.9543 47.937C23.7579 47.289 22.8336 46.3774 22.1798 45.2024C21.5261 44.0273 21.1992 42.6615 21.1992 41.1066C21.1992 39.5517 21.5167 38.1518 22.1485 36.9659C22.782 35.7799 23.6672 34.8637 24.8026 34.2157L24.8042 34.2142ZM31.6793 36.7845C30.9255 36.1567 29.9762 35.8435 28.8298 35.8435C27.7647 35.8435 26.8451 36.1675 26.071 36.8155C25.2968 37.4635 24.8495 38.3255 24.7291 39.4013H33.0228C32.882 38.2851 32.4347 37.4139 31.6809 36.7861L31.6793 36.7845Z"></path>
<path fill="black" d="M37.1533 36.2625V33.4225H39.8371V29.1484H43.1245V33.4225H46.8343V36.2625H43.1245V44.2432C43.1245 44.8416 43.245 45.2648 43.4858 45.5144C43.7267 45.764 44.1396 45.888 44.7229 45.888H47.1955V48.7281H44.0598C42.5928 48.7281 41.5215 48.3886 40.8474 47.7111C40.1733 47.0337 39.8371 45.9872 39.8371 44.5719V36.261H37.1533V36.2625Z"></path>
<path fill="black" d="M52.2015 29.15V33.424H55.9409V36.2641H52.2015V44.2448C52.2015 44.8432 52.3219 45.2664 52.5628 45.516C52.8036 45.7655 53.2165 45.8896 53.7999 45.8896H56.2725V48.7296H53.1367C51.6697 48.7296 50.6031 48.3901 49.94 47.7127C49.2769 47.0352 48.9453 45.9888 48.9453 44.5734V29.1484H52.2015V29.15Z"></path>
<path fill="black" d="M60.752 34.2142C61.8874 33.5662 63.1902 33.2422 64.6572 33.2422C66.1242 33.2422 67.4567 33.5414 68.5922 34.1398C69.7276 34.7382 70.6222 35.5846 71.2759 36.6806C71.9297 37.7767 72.2659 39.0618 72.2862 40.5377C72.2862 40.9361 72.2565 41.3453 72.1955 41.7639H60.555V41.9437C60.6347 43.2785 61.057 44.3358 61.8218 45.1124C62.585 45.8891 63.6016 46.2782 64.8668 46.2782C65.8724 46.2782 66.717 46.0441 67.4004 45.576C68.0839 45.1078 68.5359 44.4443 68.7579 43.5885H72.0141C71.7326 45.1434 70.9741 46.4177 69.737 47.4146C68.5015 48.4114 66.9578 48.909 65.1077 48.909C63.4983 48.909 62.097 48.585 60.9006 47.937C59.7042 47.289 58.7799 46.3774 58.1261 45.2024C57.4724 44.0273 57.1455 42.6615 57.1455 41.1066C57.1455 39.5517 57.463 38.1518 58.0948 36.9659C58.7282 35.7799 59.6134 34.8637 60.7489 34.2157L60.752 34.2142ZM67.6272 36.7845C66.8734 36.1567 65.924 35.8435 64.7777 35.8435C63.7126 35.8435 62.7914 36.1675 62.0188 36.8155C61.2462 37.4635 60.7974 38.3255 60.6769 39.4013H68.9706C68.8299 38.2851 68.3826 37.4139 67.6288 36.7861L67.6272 36.7845Z"></path>
<path fill="black" d="M89.6876 48.7276H87.9689C86.9632 48.7276 86.2407 48.5183 85.7981 48.0998C85.3555 47.6812 85.1349 47.0735 85.1349 46.2767C83.9682 48.03 82.2698 48.9074 80.038 48.9074C78.3082 48.9074 76.921 48.509 75.8763 47.7122C74.83 46.9154 74.3076 45.8194 74.3076 44.4241C74.3076 42.8491 74.8706 41.6399 75.9967 40.7919C77.1228 39.9455 78.7618 39.5207 80.9122 39.5207H84.8034V38.5936C84.8034 37.7364 84.5015 37.0635 83.8978 36.5752C83.2942 36.0869 82.4606 35.8435 81.3939 35.8435C80.4493 35.8435 79.6705 36.0481 79.0574 36.4559C78.4443 36.8651 78.0768 37.4077 77.9563 38.0852H74.7596C74.9207 36.5504 75.6041 35.3598 76.81 34.5134C78.0158 33.667 79.5938 33.2422 81.5441 33.2422C83.6148 33.2422 85.2131 33.7212 86.3392 34.6777C87.4652 35.6342 88.0283 37.0093 88.0283 38.8029V44.8411C88.0283 45.5589 88.3708 45.917 89.0542 45.917H89.6876V48.7276ZM80.7605 41.9127C79.7549 41.9127 78.9807 42.1065 78.438 42.4956C77.8954 42.8847 77.6232 43.4568 77.6232 44.2148C77.6232 44.8722 77.8797 45.4008 78.3927 45.7992C78.9057 46.1976 79.6048 46.3976 80.4884 46.3976C81.835 46.3976 82.886 46.0395 83.6398 45.3217C84.3936 44.604 84.7799 43.6475 84.8003 42.4522V41.9143H80.759L80.7605 41.9127Z"></path>
<path fill="black" d="M100 36.4402H98.5521C97.2056 36.4402 96.2297 36.8743 95.6275 37.7409C95.0254 38.6075 94.722 39.7081 94.722 41.0444V48.7275H91.4658V33.4219H94.3607L94.722 35.724C95.1646 35.0062 95.737 34.4435 96.4408 34.0358C97.1446 33.6265 98.0892 33.4234 99.2747 33.4234H99.9988V36.4433L100 36.4402Z"></path>
<path fill="black" d="M10.7001 48.8389C9.55993 48.8389 8.42449 48.5877 7.37351 48.0854C5.32002 47.1041 3.81862 45.2485 3.25402 42.9929L2.86929 41.455L5.97219 40.6923L6.35693 42.2302C6.69631 43.5866 7.55023 44.6532 8.76231 45.233C9.96812 45.8097 11.3726 45.8174 12.6144 45.2547C14.3128 44.4858 15.5061 42.765 15.808 40.6551C15.9925 39.3668 15.6672 38.0104 14.8149 36.5113C14.6585 36.2353 14.452 35.933 14.2331 35.6137C13.4214 34.4278 12.3094 32.8046 12.8052 30.8017C13.0507 29.808 13.6372 29.0561 14.2346 28.3926C14.5803 28.0082 14.9431 27.6268 15.2934 27.2563C16.7276 25.7479 18.0804 24.3232 18.5105 22.5792C18.9578 20.7623 18.4996 18.7299 17.3141 17.2743C15.7783 15.3876 13.2837 14.3784 10.6453 14.5753C8.05227 14.7691 5.78296 16.1069 4.57401 18.1564C2.85365 21.0739 3.05696 24.7496 3.52928 27.3199L3.81549 28.8779L0.670355 29.4468L0.382585 27.8888C-0.188262 24.793 -0.402525 20.3127 1.81205 16.558C3.55118 13.6095 6.762 11.6872 10.4029 11.4159C14.0907 11.1415 17.6018 12.5879 19.7992 15.2853C21.5962 17.4928 22.2922 20.5763 21.6134 23.3311C20.9847 25.8874 19.1955 27.7679 17.619 29.4282C17.2671 29.7972 16.9356 30.1475 16.6197 30.4994C16.2975 30.8591 15.9878 31.2358 15.9081 31.5567C15.761 32.1489 16.1755 32.8124 16.8762 33.8356C17.1217 34.1952 17.3766 34.5673 17.5987 34.9579C18.792 37.057 19.2534 39.1235 18.9703 41.1C18.5152 44.2858 16.6353 46.9166 13.9422 48.1381C12.9052 48.6079 11.7995 48.8435 10.6985 48.8435L10.7001 48.8389Z"></path>
<path fill="black" d="M32.8784 30.5902L30.3151 29.3329L30.9485 28.0617C32.9973 23.9551 33.2459 19.2548 31.646 14.8273C30.0695 10.4633 26.7852 6.89309 22.6329 5.03435L21.3301 4.45145L22.5077 1.86719L23.8105 2.45008C28.6651 4.62353 32.503 8.78595 34.3391 13.8708C36.1752 18.954 35.8734 24.5845 33.5118 29.3174L32.8784 30.5886V30.5902Z"></path>
<path fill="black" d="M26.5273 28.363L23.964 27.1057L24.5974 25.8345C25.9486 23.1263 26.1113 20.0242 25.0556 17.1004C24.0156 14.2185 21.8479 11.8622 19.1094 10.6359L17.8066 10.053L18.9843 7.46875L20.2871 8.05164C23.7278 9.59259 26.4475 12.5412 27.7488 16.1439C29.0484 19.7452 28.8357 23.7355 27.1623 27.0887L26.5289 28.3599L26.5273 28.363Z"></path>
</svg>
